<?xml version="1.0" encoding="utf-8"?>
<!-- Generator: Adobe Illustrator 19.0.0, SVG Export Plug-In . SVG Version: 6.00 Build 0)  -->
<svg version="1.1" id="Laag_1" xmlns="http://www.w3.org/2000/svg" xmlns:xlink="http://www.w3.org/1999/xlink" x="0px" y="0px"
	 viewBox="0 0 450 450" style="enable-background:new 0 0 450 450;" xml:space="preserve">
<style type="text/css">
	.st0{fill:#F1C40F;}
</style>
<circle id="XMLID_1_" class="st0" cx="225" cy="225" r="113.5"/>
<path id="XMLID_2_" class="st0" d="M225.8,100.1h-1.6c-3.7,0-6.8-3.1-6.8-6.8V55.8c0-3.7,3.1-6.8,6.8-6.8h1.6c3.7,0,6.8,3.1,6.8,6.8
	v37.5C232.6,97.1,229.5,100.1,225.8,100.1z"/>
<circle id="XMLID_5_" class="st0" cx="225" cy="225" r="113.5"/>
<path id="XMLID_4_" class="st0" d="M273.6,110l-1.4-0.6c-3.5-1.4-5.1-5.4-3.7-8.9l14.4-34.6c1.4-3.5,5.4-5.1,8.9-3.7l1.4,0.6
	c3.5,1.4,5.1,5.4,3.7,8.9l-14.4,34.6C281,109.7,277,111.4,273.6,110z"/>
<circle id="XMLID_7_" class="st0" cx="225" cy="225" r="113.5"/>
<path id="XMLID_6_" class="st0" d="M313.9,137.3l-1.1-1.1c-2.6-2.6-2.6-7,0-9.6l26.5-26.5c2.6-2.6,7-2.6,9.6,0l1.1,1.1
	c2.6,2.6,2.6,7,0,9.6l-26.5,26.5C320.9,140,316.6,140,313.9,137.3z"/>
<circle id="XMLID_9_" class="st0" cx="225" cy="225" r="113.5"/>
<path id="XMLID_8_" class="st0" d="M340.7,178.1l-0.6-1.4c-1.4-3.5,0.2-7.4,3.7-8.9l34.7-14.3c3.5-1.4,7.4,0.2,8.9,3.7l0.6,1.4
	c1.4,3.5-0.2,7.4-3.7,8.9l-34.7,14.3C346.1,183.2,342.2,181.5,340.7,178.1z"/>
<circle id="XMLID_11_" class="st0" cx="225" cy="225" r="113.5"/>
<path id="XMLID_10_" class="st0" d="M349.9,226l0-1.6c0-3.7,3.1-6.8,6.8-6.8l37.5,0.1c3.7,0,6.8,3.1,6.8,6.8l0,1.6
	c0,3.7-3.1,6.8-6.8,6.8l-37.5-0.1C352.9,232.8,349.9,229.7,349.9,226z"/>
<circle id="XMLID_13_" class="st0" cx="225" cy="225" r="113.5"/>
<path id="XMLID_12_" class="st0" d="M340,273.8l0.6-1.4c1.4-3.4,5.4-5.1,8.9-3.7l34.6,14.4c3.4,1.4,5.1,5.4,3.7,8.9l-0.6,1.4
	c-1.4,3.4-5.4,5.1-8.9,3.7l-34.6-14.4C340.2,281.2,338.5,277.2,340,273.8z"/>
<circle id="XMLID_15_" class="st0" cx="225" cy="225" r="113.5"/>
<path id="XMLID_14_" class="st0" d="M312.5,314.1l1.1-1.1c2.6-2.6,7-2.6,9.6,0l26.4,26.6c2.6,2.6,2.6,7,0,9.6l-1.1,1.1
	c-2.6,2.6-7,2.6-9.6,0l-26.4-26.6C309.8,321,309.9,316.7,312.5,314.1z"/>
<circle id="XMLID_17_" class="st0" cx="225" cy="225" r="113.5"/>
<path id="XMLID_16_" class="st0" d="M271.7,340.8l1.4-0.6c3.5-1.4,7.4,0.2,8.9,3.7l14.2,34.7c1.4,3.5-0.2,7.4-3.7,8.9l-1.4,0.6
	c-3.5,1.4-7.4-0.2-8.9-3.7L268,349.7C266.6,346.2,268.2,342.2,271.7,340.8z"/>
<circle id="XMLID_19_" class="st0" cx="225" cy="225" r="113.5"/>
<path id="XMLID_18_" class="st0" d="M223.8,349.9l1.6,0c3.7,0,6.8,3.1,6.8,6.8l-0.1,37.5c0,3.7-3.1,6.8-6.8,6.8l-1.6,0
	c-3.7,0-6.8-3.1-6.8-6.8l0.1-37.5C217,352.9,220,349.9,223.8,349.9z"/>
<circle id="XMLID_21_" class="st0" cx="225" cy="225" r="113.5"/>
<path id="XMLID_20_" class="st0" d="M176,339.9l1.4,0.6c3.4,1.4,5.1,5.4,3.6,8.9L166.6,384c-1.4,3.4-5.4,5.1-8.9,3.6l-1.4-0.6
	c-3.4-1.4-5.1-5.4-3.6-8.9l14.5-34.6C168.6,340.1,172.6,338.4,176,339.9z"/>
<circle id="XMLID_23_" class="st0" cx="225" cy="225" r="113.5"/>
<path id="XMLID_22_" class="st0" d="M135.8,312.4l1.1,1.1c2.6,2.7,2.6,7,0,9.6l-26.6,26.4c-2.7,2.6-7,2.6-9.6,0l-1.1-1.1
	c-2.6-2.7-2.6-7,0-9.6l26.6-26.4C128.8,309.7,133.1,309.7,135.8,312.4z"/>
<circle id="XMLID_25_" class="st0" cx="225" cy="225" r="113.5"/>
<path id="XMLID_24_" class="st0" d="M109.1,271.5l0.6,1.4c1.4,3.5-0.3,7.4-3.7,8.9L71.3,296c-3.5,1.4-7.4-0.3-8.9-3.7l-0.6-1.4
	c-1.4-3.5,0.3-7.4,3.7-8.9l34.7-14.2C103.7,266.4,107.7,268,109.1,271.5z"/>
<circle id="XMLID_27_" class="st0" cx="225" cy="225" r="113.5"/>
<path id="XMLID_26_" class="st0" d="M100.1,223.6l0,1.6c0,3.7-3.1,6.8-6.8,6.8l-37.5-0.2c-3.7,0-6.8-3.1-6.8-6.8l0-1.6
	c0-3.7,3.1-6.8,6.8-6.8l37.5,0.2C97.1,216.7,100.2,219.8,100.1,223.6z"/>
<circle id="XMLID_29_" class="st0" cx="225" cy="225" r="113.5"/>
<path id="XMLID_28_" class="st0" d="M110.2,175.8l-0.6,1.4c-1.4,3.4-5.5,5.1-8.9,3.6l-34.6-14.5c-3.4-1.4-5.1-5.5-3.6-8.9l0.6-1.4
	c1.4-3.4,5.5-5.1,8.9-3.6l34.6,14.5C110,168.4,111.7,172.4,110.2,175.8z"/>
<circle id="XMLID_31_" class="st0" cx="225" cy="225" r="113.5"/>
<path id="XMLID_30_" class="st0" d="M137.8,135.6l-1.1,1.1c-2.7,2.6-7,2.6-9.6-0.1L100.7,110c-2.6-2.7-2.6-7,0.1-9.6l1.1-1.1
	c2.7-2.6,7-2.6,9.6,0.1l26.4,26.7C140.5,128.7,140.5,133,137.8,135.6z"/>
<circle id="XMLID_33_" class="st0" cx="225" cy="225" r="113.5"/>
<path id="XMLID_32_" class="st0" d="M178.7,109l-1.5,0.6c-3.5,1.4-7.4-0.3-8.9-3.7l-14.1-34.7c-1.4-3.5,0.3-7.4,3.7-8.9l1.5-0.6
	c3.5-1.4,7.4,0.3,8.9,3.7l14.1,34.7C183.8,103.6,182.2,107.6,178.7,109z"/>
</svg>
